<?xml version="1.0" encoding="utf-8"?>
<!-- Generator: Adobe Illustrator 20.1.0, SVG Export Plug-In . SVG Version: 6.00 Build 0)  -->
<svg version="1.1" id="PCHC_Dental_Residency_Logo" xmlns="http://www.w3.org/2000/svg" xmlns:xlink="http://www.w3.org/1999/xlink"
	 x="0px" y="0px" viewBox="0 0 422.1 100" enable-background="new 0 0 422.1 100" xml:space="preserve">
<g id="PCHC_Dental_Residency">
	<g id="logo-fullcolor">
		<path fill="#FFFFFF" d="M166,37.4c-2.8,0.8-5.3,2.1-7.5,3.9c-2.2,1.8-3.9,4.1-5.2,7c-1.3,2.9-1.9,6.4-1.9,10.5
			c0,2.8,0.5,5.4,1.5,7.8c1,2.4,2.4,4.5,4.3,6.3c1.9,1.8,4.2,3.1,6.9,4.1c2.7,1,5.8,1.5,9.2,1.5c4.9,0,8.9-0.8,12.1-2.4
			c0.1-0.8,0.2-1.7,0.5-2.5c0.2-0.9,0.5-1.7,0.8-2.5l-0.8-0.5c-0.6,0.7-1.4,1.3-2.2,1.8c-0.9,0.6-1.8,1-2.7,1.4
			c-1,0.4-1.9,0.7-2.9,0.9c-1,0.2-2,0.3-2.9,0.3c-1.7,0-3.4-0.3-5.1-0.9c-1.7-0.6-3.2-1.6-4.5-3c-1.3-1.4-2.4-3.1-3.2-5.3
			c-0.8-2.2-1.2-4.8-1.2-7.8c0-3.2,0.4-5.9,1.2-8.2c0.8-2.3,1.9-4.1,3.2-5.6c1.3-1.5,2.8-2.6,4.4-3.3c1.6-0.7,3.2-1.1,4.8-1.1
			c2.1,0,4,0.4,5.6,1.2c1.6,0.8,3.1,2.2,4.6,4.1h0.8c0.1-1,0.2-2,0.4-3.1c0.2-1,0.5-2,0.9-3c-0.7-0.4-1.5-0.8-2.5-1.1
			c-1-0.4-2-0.7-3.1-0.9c-1.1-0.3-2.2-0.5-3.3-0.6c-1.1-0.2-2.2-0.2-3.3-0.2C171.9,36.1,168.9,36.5,166,37.4"/>
		<path fill="#FFFFFF" d="M140.9,37.1c-0.8,0.1-1.7,0.1-2.7,0.1c-1,0-1.9,0-2.7-0.1c-0.8-0.1-1.5-0.1-2.2-0.2
			c0.2,2.6,0.3,5.1,0.4,7.6c0.1,2.5,0.1,5.4,0.1,8.7c-1.1,0-2.4,0.1-3.7,0.1c-1.3,0-3.1,0-5.2,0c-2.1,0-3.9,0-5.4,0
			c-1.4,0-2.7,0-3.7-0.1c0-3.3,0-6.2,0.1-8.7c0.1-2.5,0.2-5.1,0.4-7.6c-0.7,0.1-1.4,0.1-2.2,0.2c-0.8,0.1-1.7,0.1-2.7,0.1
			c-1,0-1.9,0-2.7-0.1c-0.8-0.1-1.5-0.1-2.2-0.2c0.2,2.6,0.3,5.1,0.4,7.7c0.1,2.6,0.1,5.5,0.1,8.8v8.1c0,3.3,0,6.2-0.1,8.7
			c-0.1,2.5-0.2,5.1-0.4,7.5c0.7-0.1,1.4-0.1,2.2-0.1h2.7h2.7c0.8,0,1.5,0,2.2,0.1c-0.2-2.5-0.3-5-0.4-7.5c-0.1-2.5-0.1-5.5-0.1-8.7
			V58c1.5-0.1,3-0.1,4.5-0.2c1.5,0,3-0.1,4.5-0.1c1.5,0,3,0,4.5,0.1c1.5,0.1,3,0.1,4.5,0.1v3.4c0,3.3,0,6.2-0.1,8.7
			c-0.1,2.5-0.2,5.1-0.4,7.5c0.7-0.1,1.4-0.1,2.2-0.1h2.7h2.7c0.8,0,1.5,0,2.2,0.1c-0.2-2.5-0.3-5-0.4-7.5c-0.1-2.5-0.1-5.5-0.1-8.7
			v-8.1c0-3.3,0-6.2,0.1-8.8c0.1-2.6,0.2-5.1,0.4-7.7C142.4,37,141.7,37,140.9,37.1"/>
		<path fill="#FFFFFF" d="M77.3,37.4c-2.8,0.8-5.3,2.1-7.5,3.9c-2.2,1.8-3.9,4.1-5.2,7c-1.3,2.9-1.9,6.4-1.9,10.5
			c0,2.8,0.5,5.4,1.5,7.8c1,2.4,2.4,4.5,4.3,6.3c1.9,1.8,4.2,3.1,6.9,4.1c2.7,1,5.8,1.5,9.2,1.5c4.9,0,8.9-0.8,12.1-2.4
			c0.1-0.8,0.2-1.7,0.5-2.5c0.2-0.9,0.5-1.7,0.8-2.5l-0.8-0.5c-0.6,0.7-1.4,1.3-2.2,1.8c-0.9,0.6-1.7,1-2.7,1.4
			c-1,0.4-1.9,0.7-2.9,0.9c-1,0.2-2,0.3-2.9,0.3c-1.7,0-3.4-0.3-5.1-0.9s-3.2-1.6-4.5-3c-1.3-1.4-2.4-3.1-3.2-5.3
			c-0.8-2.2-1.2-4.8-1.2-7.8c0-3.2,0.4-5.9,1.2-8.2c0.8-2.3,1.9-4.1,3.2-5.6c1.3-1.5,2.8-2.6,4.4-3.3c1.6-0.7,3.2-1.1,4.8-1.1
			c2.1,0,4,0.4,5.6,1.2c1.6,0.8,3.1,2.2,4.6,4.1H97c0.1-1,0.2-2,0.4-3.1c0.2-1,0.5-2,0.9-3c-0.7-0.4-1.5-0.8-2.5-1.1
			c-1-0.4-2-0.7-3.1-0.9c-1.1-0.3-2.2-0.5-3.3-0.6c-1.1-0.2-2.2-0.2-3.3-0.2C83.2,36.1,80.2,36.5,77.3,37.4"/>
		<path fill="#FFFFFF" d="M39.8,48.7c0-2.7,0-5.5,0.1-8.4c0.2,0,0.3-0.1,0.5-0.1H41h1.4c0.8,0,1.6,0.1,2.4,0.4
			c0.8,0.3,1.4,0.7,2,1.3c0.6,0.6,1,1.4,1.4,2.5c0.3,1,0.5,2.3,0.5,3.8c0,1.9-0.3,3.4-0.8,4.6c-0.6,1.1-1.3,2-2.1,2.6
			c-0.9,0.6-1.8,1-2.9,1.2c-1,0.2-2.1,0.3-3.1,0.3C39.7,54.2,39.7,51.5,39.8,48.7 M39.6,37c-1.5,0.1-2.9,0.1-4.3,0.1
			c-1,0-1.9,0-2.7-0.1c-0.8-0.1-1.5-0.1-2.2-0.2c0.2,2.6,0.3,5.1,0.4,7.7c0.1,2.6,0.1,5.5,0.1,8.8v8.1c0,3.3,0,6.2-0.1,8.7
			c-0.1,2.5-0.2,5.1-0.4,7.5c0.7-0.1,1.4-0.1,2.2-0.1h2.7H38c0.8,0,1.5,0,2.2,0.1c-0.2-2.9-0.3-5.8-0.4-8.8C39.8,66,39.7,63,39.7,60
			h3c2.2,0,4.3-0.2,6.1-0.7c1.9-0.5,3.5-1.2,4.8-2.2c1.4-1,2.4-2.3,3.2-3.9c0.7-1.6,1.1-3.6,1.1-5.8c0-1.8-0.3-3.3-0.9-4.6
			c-0.6-1.3-1.5-2.4-2.8-3.4c-0.9-0.8-2.2-1.4-3.7-1.8c-1.6-0.4-3.8-0.6-6.6-0.6C42.6,36.9,41.1,36.9,39.6,37"/>
		<path fill="#FFFFFF" d="M108.1,0C48.5,0,0,25.8,0,57.5c0,15.9,13.1,31.3,35.9,42.4c0,0,0,0,0,0c-19.3-10.1-25.2-26.6-25.2-41
			C10.8,30.4,52.6,9,108.1,9c55.5,0,97.4,21.5,97.4,49.9c0,14.4-6.1,30.9-25.5,41c0,0,0.1,0.1,0.1,0.1c23-11.1,36.1-26.6,36.1-42.5
			C216.3,25.8,167.7,0,108.1,0z"/>
	</g>
	<path fill="#FFFFFF" d="M234.6,95.8c-0.4,0-0.8-0.3-0.8-0.8V5c0-0.4,0.3-0.8,0.8-0.8s0.8,0.3,0.8,0.8v90
		C235.4,95.4,235,95.8,234.6,95.8z"/>
	<g id="Dental_Residency">
		<path fill="#FFFFFF" d="M281,26.9c0,2.2-0.3,4.2-1,5.9c-0.7,1.7-1.6,3.2-2.8,4.5c-1.2,1.2-2.6,2.2-4.3,2.8c-1.7,0.7-3.5,1-5.5,1
			h-10.3V12.7h10.3c2,0,3.8,0.3,5.5,1c1.7,0.7,3.1,1.6,4.3,2.8c1.2,1.2,2.1,2.7,2.8,4.5C280.7,22.7,281,24.7,281,26.9z M278.9,26.9
			c0-2-0.3-3.7-0.8-5.3c-0.5-1.5-1.3-2.9-2.3-3.9c-1-1.1-2.2-1.9-3.6-2.4c-1.4-0.6-3-0.8-4.7-0.8h-8.3v25h8.3c1.7,0,3.3-0.3,4.7-0.8
			s2.6-1.4,3.6-2.4c1-1.1,1.8-2.4,2.3-3.9C278.6,30.6,278.9,28.9,278.9,26.9z"/>
		<path fill="#FFFFFF" d="M294.1,20.8c1.1,0,2.2,0.2,3.1,0.6s1.8,0.9,2.5,1.7s1.2,1.7,1.6,2.7c0.4,1.1,0.6,2.3,0.6,3.7
			c0,0.3,0,0.5-0.1,0.6c-0.1,0.1-0.2,0.2-0.4,0.2H287v0.4c0,1.5,0.2,2.8,0.5,3.9c0.3,1.1,0.8,2.1,1.5,2.8c0.6,0.8,1.4,1.3,2.3,1.7
			c0.9,0.4,1.9,0.6,3,0.6c1,0,1.9-0.1,2.6-0.3c0.7-0.2,1.4-0.5,1.9-0.7s0.9-0.5,1.2-0.7c0.3-0.2,0.5-0.3,0.6-0.3
			c0.2,0,0.3,0.1,0.4,0.2l0.5,0.6c-0.3,0.4-0.7,0.8-1.3,1.1c-0.5,0.3-1.1,0.6-1.8,0.9s-1.3,0.4-2.1,0.6s-1.5,0.2-2.2,0.2
			c-1.4,0-2.6-0.2-3.7-0.7c-1.1-0.5-2.1-1.2-2.9-2.1c-0.8-0.9-1.4-2-1.9-3.3c-0.4-1.3-0.7-2.8-0.7-4.5c0-1.4,0.2-2.7,0.6-3.9
			c0.4-1.2,1-2.2,1.8-3.1c0.8-0.9,1.7-1.6,2.8-2.1C291.4,21.1,292.7,20.8,294.1,20.8z M294.1,22.2c-1,0-1.9,0.2-2.8,0.5
			c-0.8,0.3-1.5,0.8-2.1,1.4c-0.6,0.6-1.1,1.3-1.4,2.2s-0.6,1.8-0.7,2.8h13.1c0-1.1-0.1-2-0.4-2.9s-0.7-1.6-1.2-2.2
			c-0.5-0.6-1.2-1-1.9-1.3C295.9,22.4,295,22.2,294.1,22.2z"/>
		<path fill="#FFFFFF" d="M306.4,41V21.1h1c0.3,0,0.5,0.2,0.6,0.5l0.2,3c0.9-1.1,2-2.1,3.2-2.8s2.5-1,4-1c1.1,0,2.1,0.2,2.9,0.5
			c0.8,0.3,1.5,0.8,2.1,1.5c0.5,0.7,1,1.4,1.2,2.4c0.3,0.9,0.4,2,0.4,3.1V41h-1.9V28.3c0-1.9-0.4-3.3-1.3-4.4
			c-0.9-1.1-2.2-1.6-3.9-1.6c-1.3,0-2.5,0.3-3.6,1c-1.1,0.7-2.1,1.6-3,2.8V41H306.4z"/>
		<path fill="#FFFFFF" d="M332.6,41.4c-1.3,0-2.4-0.4-3.1-1.1s-1.1-1.9-1.1-3.5V23.2h-2.9c-0.1,0-0.3,0-0.4-0.1
			c-0.1-0.1-0.1-0.2-0.1-0.3V22l3.4-0.2l0.5-7.1c0-0.1,0.1-0.2,0.1-0.3c0.1-0.1,0.2-0.1,0.3-0.1h0.9v7.6h6.3v1.4h-6.3v13.5
			c0,0.5,0.1,1,0.2,1.4c0.1,0.4,0.3,0.7,0.6,1c0.2,0.3,0.5,0.4,0.9,0.6c0.3,0.1,0.7,0.2,1.1,0.2c0.5,0,0.9-0.1,1.2-0.2
			c0.3-0.1,0.6-0.3,0.9-0.5c0.3-0.2,0.5-0.3,0.6-0.5s0.3-0.2,0.4-0.2c0.1,0,0.2,0.1,0.3,0.2l0.5,0.8c-0.5,0.6-1.2,1-1.9,1.3
			C334.3,41.2,333.5,41.4,332.6,41.4z"/>
		<path fill="#FFFFFF" d="M353.9,41c-0.4,0-0.6-0.2-0.7-0.6l-0.3-2.5c-0.5,0.5-1.1,1-1.6,1.4c-0.5,0.4-1.1,0.8-1.7,1.1
			c-0.6,0.3-1.2,0.5-1.9,0.7c-0.7,0.2-1.4,0.2-2.2,0.2c-0.7,0-1.3-0.1-2-0.3c-0.6-0.2-1.2-0.5-1.7-0.9c-0.5-0.4-0.9-0.9-1.2-1.6
			c-0.3-0.6-0.4-1.4-0.4-2.3c0-0.8,0.2-1.6,0.7-2.3c0.5-0.7,1.2-1.3,2.2-1.9c1-0.5,2.3-1,3.9-1.3c1.6-0.3,3.5-0.5,5.8-0.6v-2.1
			c0-1.8-0.4-3.3-1.2-4.2s-2-1.5-3.5-1.5c-1,0-1.8,0.1-2.4,0.4s-1.2,0.6-1.7,0.9c-0.5,0.3-0.8,0.6-1.1,0.9s-0.5,0.4-0.7,0.4
			c-0.3,0-0.5-0.1-0.6-0.4l-0.3-0.6c1-1,2.1-1.8,3.3-2.4c1.1-0.5,2.4-0.8,3.9-0.8c1.1,0,2,0.2,2.8,0.5c0.8,0.3,1.5,0.8,2,1.5
			c0.5,0.6,0.9,1.4,1.2,2.3c0.3,0.9,0.4,1.9,0.4,3v13H353.9z M345.9,40c0.8,0,1.5-0.1,2.1-0.2c0.6-0.2,1.2-0.4,1.8-0.7
			c0.6-0.3,1.1-0.7,1.6-1.1s1-0.9,1.4-1.3v-5.2c-1.9,0.1-3.5,0.2-4.9,0.4c-1.4,0.2-2.5,0.5-3.4,1c-0.9,0.4-1.5,0.9-2,1.4
			c-0.4,0.6-0.6,1.2-0.6,1.9c0,0.7,0.1,1.2,0.3,1.7c0.2,0.5,0.5,0.9,0.9,1.2s0.8,0.5,1.3,0.7C344.8,39.9,345.3,40,345.9,40z"/>
		<path fill="#FFFFFF" d="M362.3,11.9V41h-1.9V11.9H362.3z"/>
		<path fill="#FFFFFF" d="M259.8,68.2V81h-2V52.7h7.2c3.3,0,5.7,0.6,7.3,1.9s2.4,3.1,2.4,5.6c0,1.1-0.2,2.1-0.6,3
			c-0.4,0.9-0.9,1.7-1.6,2.4c-0.7,0.7-1.5,1.2-2.5,1.7c-1,0.4-2.1,0.7-3.3,0.9c0.3,0.2,0.6,0.5,0.9,0.8l9.7,12.2h-1.8
			c-0.2,0-0.4,0-0.5-0.1c-0.2-0.1-0.3-0.2-0.5-0.4L265.5,69c-0.2-0.3-0.5-0.5-0.7-0.6c-0.3-0.1-0.7-0.2-1.2-0.2H259.8z M259.8,66.7
			h4.9c1.3,0,2.4-0.1,3.4-0.4c1-0.3,1.8-0.7,2.5-1.3c0.7-0.6,1.2-1.2,1.6-2c0.4-0.8,0.5-1.7,0.5-2.7c0-2-0.7-3.5-2-4.5
			c-1.3-1-3.2-1.5-5.8-1.5h-5.2V66.7z"/>
		<path fill="#FFFFFF" d="M287.9,60.8c1.1,0,2.2,0.2,3.1,0.6s1.8,0.9,2.5,1.7s1.2,1.7,1.6,2.7c0.4,1.1,0.6,2.3,0.6,3.7
			c0,0.3,0,0.5-0.1,0.6c-0.1,0.1-0.2,0.2-0.4,0.2h-14.4v0.4c0,1.5,0.2,2.8,0.5,3.9c0.3,1.1,0.8,2.1,1.5,2.8c0.6,0.8,1.4,1.3,2.3,1.7
			c0.9,0.4,1.9,0.6,3,0.6c1,0,1.9-0.1,2.6-0.3c0.7-0.2,1.4-0.5,1.9-0.7s0.9-0.5,1.2-0.7c0.3-0.2,0.5-0.3,0.6-0.3
			c0.2,0,0.3,0.1,0.4,0.2l0.5,0.6c-0.3,0.4-0.7,0.8-1.3,1.1c-0.5,0.3-1.1,0.6-1.8,0.9c-0.6,0.2-1.3,0.4-2.1,0.6
			c-0.7,0.1-1.5,0.2-2.2,0.2c-1.4,0-2.6-0.2-3.7-0.7c-1.1-0.5-2.1-1.2-2.9-2.1c-0.8-0.9-1.4-2-1.9-3.3c-0.4-1.3-0.7-2.8-0.7-4.5
			c0-1.4,0.2-2.7,0.6-3.9c0.4-1.2,1-2.2,1.8-3.1c0.8-0.9,1.7-1.6,2.8-2.1C285.3,61.1,286.5,60.8,287.9,60.8z M288,62.2
			c-1,0-1.9,0.2-2.8,0.5c-0.8,0.3-1.5,0.8-2.1,1.4c-0.6,0.6-1.1,1.3-1.4,2.2s-0.6,1.8-0.7,2.8H294c0-1.1-0.1-2-0.4-2.9
			c-0.3-0.8-0.7-1.6-1.2-2.2c-0.5-0.6-1.2-1-1.9-1.3C289.7,62.4,288.9,62.2,288,62.2z"/>
		<path fill="#FFFFFF" d="M311.5,63.6c-0.1,0.2-0.2,0.3-0.4,0.3c-0.1,0-0.3-0.1-0.6-0.2c-0.2-0.2-0.5-0.4-0.9-0.6
			c-0.4-0.2-0.8-0.4-1.4-0.6c-0.6-0.2-1.2-0.2-2-0.2c-0.7,0-1.4,0.1-2,0.3c-0.6,0.2-1.1,0.5-1.5,0.8s-0.7,0.7-1,1.2
			c-0.2,0.5-0.3,0.9-0.3,1.4c0,0.6,0.2,1.1,0.5,1.6s0.7,0.8,1.3,1.1s1.1,0.5,1.8,0.8s1.3,0.4,2,0.6c0.7,0.2,1.4,0.5,2,0.7
			s1.2,0.6,1.8,1c0.5,0.4,0.9,0.9,1.3,1.4c0.3,0.6,0.5,1.2,0.5,2c0,0.9-0.2,1.7-0.5,2.4c-0.3,0.7-0.8,1.4-1.4,1.9
			c-0.6,0.5-1.3,1-2.2,1.3s-1.9,0.5-3,0.5c-1.4,0-2.6-0.2-3.6-0.7c-1-0.4-1.9-1-2.7-1.8l0.5-0.7c0.1-0.1,0.1-0.2,0.2-0.2
			c0.1-0.1,0.2-0.1,0.3-0.1c0.2,0,0.4,0.1,0.6,0.3c0.3,0.2,0.6,0.4,1,0.7s0.9,0.5,1.5,0.7c0.6,0.2,1.4,0.3,2.2,0.3
			c0.8,0,1.6-0.1,2.2-0.3c0.6-0.2,1.2-0.6,1.6-1c0.4-0.4,0.8-0.9,1-1.4c0.2-0.5,0.3-1.1,0.3-1.7c0-0.7-0.2-1.2-0.5-1.7
			s-0.7-0.8-1.3-1.1s-1.1-0.6-1.8-0.8c-0.7-0.2-1.3-0.4-2-0.6c-0.7-0.2-1.4-0.4-2-0.7c-0.7-0.3-1.2-0.6-1.8-1
			c-0.5-0.4-0.9-0.9-1.3-1.4c-0.3-0.6-0.5-1.2-0.5-2.1c0-0.7,0.2-1.4,0.5-2c0.3-0.7,0.7-1.2,1.3-1.7c0.6-0.5,1.3-0.9,2.1-1.2
			c0.8-0.3,1.7-0.4,2.7-0.4c1.2,0,2.3,0.2,3.2,0.5c0.9,0.4,1.8,0.9,2.6,1.6L311.5,63.6z"/>
		<path fill="#FFFFFF" d="M319.7,54.3c0,0.2,0,0.5-0.1,0.7c-0.1,0.2-0.2,0.4-0.4,0.6s-0.3,0.3-0.6,0.4c-0.2,0.1-0.4,0.1-0.7,0.1
			s-0.5,0-0.7-0.1c-0.2-0.1-0.4-0.2-0.6-0.4s-0.3-0.3-0.4-0.6c-0.1-0.2-0.1-0.4-0.1-0.7s0-0.5,0.1-0.7c0.1-0.2,0.2-0.4,0.4-0.6
			s0.3-0.3,0.6-0.4c0.2-0.1,0.4-0.1,0.7-0.1s0.5,0,0.7,0.1c0.2,0.1,0.4,0.2,0.6,0.4s0.3,0.3,0.4,0.6C319.7,53.8,319.7,54,319.7,54.3
			z M318.9,61.1V81H317V61.1H318.9z"/>
		<path fill="#FFFFFF" d="M339.3,81c-0.3,0-0.5-0.2-0.6-0.5l-0.2-3.1c-0.9,1.2-1.9,2.2-3.1,2.9c-1.2,0.7-2.5,1.1-4,1.1
			c-2.4,0-4.3-0.8-5.7-2.5c-1.4-1.7-2.1-4.2-2.1-7.6c0-1.5,0.2-2.8,0.6-4.1s0.9-2.4,1.7-3.3c0.7-0.9,1.7-1.7,2.7-2.2
			s2.3-0.8,3.7-0.8c1.3,0,2.5,0.2,3.5,0.8s1.8,1.2,2.6,2.2V51.9h1.9V81H339.3z M332,79.8c1.3,0,2.5-0.3,3.6-1c1.1-0.7,2-1.6,2.9-2.8
			V65.4c-0.8-1.1-1.6-1.9-2.6-2.4c-0.9-0.5-2-0.7-3.2-0.7s-2.2,0.2-3.1,0.6c-0.9,0.4-1.6,1-2.2,1.8c-0.6,0.8-1,1.7-1.3,2.8
			c-0.3,1.1-0.5,2.3-0.5,3.6c0,3,0.5,5.1,1.6,6.5C328.4,79.1,330,79.8,332,79.8z"/>
		<path fill="#FFFFFF" d="M354,60.8c1.1,0,2.2,0.2,3.1,0.6s1.8,0.9,2.5,1.7s1.2,1.7,1.6,2.7c0.4,1.1,0.6,2.3,0.6,3.7
			c0,0.3,0,0.5-0.1,0.6c-0.1,0.1-0.2,0.2-0.4,0.2h-14.4v0.4c0,1.5,0.2,2.8,0.5,3.9c0.3,1.1,0.8,2.1,1.5,2.8c0.6,0.8,1.4,1.3,2.3,1.7
			c0.9,0.4,1.9,0.6,3,0.6c1,0,1.9-0.1,2.6-0.3c0.7-0.2,1.4-0.5,1.9-0.7s0.9-0.5,1.2-0.7c0.3-0.2,0.5-0.3,0.6-0.3
			c0.2,0,0.3,0.1,0.4,0.2l0.5,0.6c-0.3,0.4-0.7,0.8-1.3,1.1c-0.5,0.3-1.1,0.6-1.8,0.9c-0.6,0.2-1.3,0.4-2.1,0.6
			c-0.7,0.1-1.5,0.2-2.2,0.2c-1.4,0-2.6-0.2-3.7-0.7c-1.1-0.5-2.1-1.2-2.9-2.1c-0.8-0.9-1.4-2-1.9-3.3c-0.4-1.3-0.7-2.8-0.7-4.5
			c0-1.4,0.2-2.7,0.6-3.9c0.4-1.2,1-2.2,1.8-3.1c0.8-0.9,1.7-1.6,2.8-2.1C351.3,61.1,352.6,60.8,354,60.8z M354.1,62.2
			c-1,0-1.9,0.2-2.8,0.5c-0.8,0.3-1.5,0.8-2.1,1.4c-0.6,0.6-1.1,1.3-1.4,2.2s-0.6,1.8-0.7,2.8h13.1c0-1.1-0.1-2-0.4-2.9
			c-0.3-0.8-0.7-1.6-1.2-2.2c-0.5-0.6-1.2-1-1.9-1.3C355.8,62.4,355,62.2,354.1,62.2z"/>
		<path fill="#FFFFFF" d="M366.3,81V61.1h1c0.3,0,0.5,0.2,0.6,0.5l0.2,3c0.9-1.1,2-2.1,3.2-2.8c1.2-0.7,2.5-1,4-1
			c1.1,0,2.1,0.2,2.9,0.5c0.8,0.3,1.5,0.8,2.1,1.5c0.5,0.7,1,1.4,1.2,2.4c0.3,0.9,0.4,2,0.4,3.1V81H380V68.3c0-1.9-0.4-3.3-1.3-4.4
			s-2.2-1.6-3.9-1.6c-1.3,0-2.5,0.3-3.6,1c-1.1,0.7-2.1,1.6-3,2.8V81H366.3z"/>
		<path fill="#FFFFFF" d="M400.8,63.8c-0.1,0.1-0.1,0.1-0.2,0.2c-0.1,0-0.1,0.1-0.2,0.1c-0.1,0-0.3-0.1-0.6-0.3
			c-0.2-0.2-0.5-0.4-0.9-0.6s-0.9-0.4-1.4-0.6s-1.3-0.3-2.1-0.3c-1.1,0-2.2,0.2-3,0.6s-1.6,1-2.2,1.8c-0.6,0.8-1.1,1.7-1.4,2.8
			s-0.5,2.3-0.5,3.6c0,1.4,0.2,2.6,0.5,3.7s0.8,2,1.4,2.7s1.3,1.3,2.2,1.7s1.8,0.6,2.8,0.6c1,0,1.8-0.1,2.4-0.3s1.2-0.5,1.6-0.7
			c0.4-0.3,0.8-0.5,1-0.7c0.2-0.2,0.4-0.3,0.6-0.3c0.2,0,0.3,0.1,0.4,0.2l0.5,0.6c-0.3,0.4-0.7,0.8-1.2,1.1c-0.5,0.3-1,0.6-1.6,0.9
			c-0.6,0.3-1.2,0.4-1.9,0.6c-0.7,0.1-1.4,0.2-2.2,0.2c-1.3,0-2.4-0.2-3.5-0.7c-1-0.5-1.9-1.1-2.7-2c-0.8-0.9-1.3-1.9-1.8-3.2
			c-0.4-1.3-0.6-2.7-0.6-4.3c0-1.5,0.2-2.9,0.6-4.2c0.4-1.3,1-2.3,1.8-3.2c0.8-0.9,1.7-1.6,2.8-2.1s2.4-0.8,3.8-0.8
			c1.3,0,2.4,0.2,3.5,0.6c1,0.4,1.9,1,2.6,1.7L400.8,63.8z"/>
		<path fill="#FFFFFF" d="M410.7,87.4c-0.1,0.2-0.2,0.3-0.3,0.5c-0.1,0.1-0.3,0.2-0.5,0.2h-1.4l3.5-7.8l-8.4-19.2h1.6
			c0.2,0,0.4,0.1,0.5,0.2s0.2,0.2,0.2,0.3l6.7,15.5c0.1,0.2,0.2,0.4,0.2,0.6s0.1,0.4,0.2,0.6c0.1-0.2,0.1-0.4,0.2-0.6
			c0.1-0.2,0.2-0.4,0.2-0.6l6.6-15.5c0.1-0.1,0.2-0.3,0.3-0.3c0.1-0.1,0.3-0.1,0.4-0.1h1.5L410.7,87.4z"/>
	</g>
</g>
</svg>
